# Blender 4.0.2
# www.blender.org
o coping_wave
v 0.215000 0.026402 -0.141000
v 0.215000 0.000000 -0.141000
v 0.215000 0.000000 0.000000
v 0.215000 0.128000 0.000000
v 0.215000 0.029151 -0.125534
v 0.215000 0.050854 -0.096547
v 0.215000 0.072438 -0.086987
v 0.215000 0.093804 -0.072770
v 0.215000 0.111288 -0.053375
v 0.215000 0.034884 -0.112889
v 0.215000 0.123614 -0.026718
v 0.215000 0.000000 -0.125534
v 0.215000 0.000000 -0.112889
v 0.215000 0.000000 -0.096547
v 0.215000 0.050854 0.000000
v 0.215000 0.072438 0.000000
v 0.215000 0.093804 0.000000
v 0.215000 0.111288 0.000000
v 0.000000 0.026402 -0.141000
v 0.000000 0.029151 -0.125534
v 0.000000 0.000000 -0.141000
v 0.000000 0.000000 -0.125534
v 0.000000 0.050854 0.000000
v 0.000000 0.000000 0.000000
v 0.000000 0.034884 -0.112889
v 0.000000 0.050854 -0.096547
v 0.000000 0.072438 -0.086987
v 0.000000 0.093804 -0.072770
v 0.000000 0.111288 -0.053375
v 0.000000 0.123614 -0.026718
v 0.000000 0.128000 0.000000
v 0.000000 0.000000 -0.112889
v 0.000000 0.000000 -0.096547
v 0.000000 0.072438 0.000000
v 0.000000 0.093804 0.000000
v 0.000000 0.111288 0.000000
v 0.215000 0.026402 0.141000
v 0.215000 0.000000 0.141000
v 0.215000 0.027702 0.128730
v 0.215000 0.050854 0.096547
v 0.215000 0.072438 0.086987
v 0.215000 0.093804 0.072770
v 0.215000 0.111288 0.053375
v 0.215000 0.034884 0.112889
v 0.215000 0.123614 0.026718
v 0.215000 0.000000 0.128730
v 0.215000 0.000000 0.112889
v 0.215000 0.000000 0.096547
v -0.000000 0.026402 0.141000
v -0.000000 0.027702 0.128730
v -0.000000 0.000000 0.141000
v -0.000000 0.000000 0.128730
v -0.000000 0.034884 0.112889
v -0.000000 0.050854 0.096547
v -0.000000 0.072438 0.086987
v -0.000000 0.093804 0.072770
v -0.000000 0.111288 0.053375
v -0.000000 0.123614 0.026718
v -0.000000 0.000000 0.112889
v -0.000000 0.000000 0.096547
vn 1.0000 -0.0000 -0.0000
vn -1.0000 -0.0000 -0.0000
vn -0.0000 0.6535 -0.7569
vn -0.0000 0.8346 -0.5509
vn -0.0000 0.9846 -0.1750
vn -0.0000 0.9551 -0.2963
vn -0.0000 -1.0000 -0.0000
vn -0.0000 0.9560 -0.2935
vn -0.0000 1.0000 -0.0000
vn -0.0000 -0.0000 -1.0000
vn -0.0000 0.8255 -0.5645
vn -0.0000 0.5703 -0.8214
vn -0.0000 0.4812 -0.8766
vn -0.0000 0.6535 0.7569
vn -0.0000 0.8346 0.5509
vn -0.0000 0.9944 0.1053
vn -0.0000 0.9649 0.2625
vn -0.0000 0.9560 0.2935
vn -0.0000 -0.0000 1.0000
vn -0.0000 0.8255 0.5645
vn -0.0000 0.5703 0.8214
vn -0.0000 0.4812 0.8766
vt 0.994888 0.983474
vt 0.942777 0.983474
vt 0.937353 0.952948
vt 0.994888 0.952948
vt 0.926036 0.927991
vt 0.994888 0.927991
vt 0.894516 0.895736
vt 0.994888 0.895736
vt 0.894516 0.705177
vt 0.994888 0.705177
vt 0.851914 0.876868
vt 0.851914 0.705177
vt 0.809744 0.848806
vt 0.809744 0.705177
vt 0.775235 0.810525
vt 0.775235 0.705177
vt 0.750906 0.757913
vt 0.742250 0.705177
vt 0.742322 0.561469
vt 0.742322 0.530943
vt 0.799857 0.530943
vt 0.794432 0.561469
vt 0.742322 0.505985
vt 0.811173 0.505985
vt 0.742322 0.473731
vt 0.842693 0.473731
vt 0.742322 0.283174
vt 0.842693 0.283174
vt 0.885295 0.283174
vt 0.885295 0.454863
vt 0.927464 0.283174
vt 0.927464 0.426802
vt 0.961972 0.283174
vt 0.961972 0.388521
vt 0.994958 0.283174
vt 0.986302 0.335909
vt 0.205633 0.865235
vt 0.205633 0.440880
vt 0.257173 0.440880
vt 0.257173 0.865235
vt 0.004880 0.865235
vt 0.004880 0.440880
vt 0.035885 0.440880
vt 0.035884 0.865235
vt 0.283175 0.004888
vt 0.283175 0.429237
vt 0.092618 0.429237
vt 0.092618 0.004888
vt 0.315139 0.865235
vt 0.315139 0.440880
vt 0.368580 0.440880
vt 0.368580 0.865235
vt 0.685224 0.004880
vt 0.685225 0.429231
vt 0.633114 0.429231
vt 0.633114 0.004880
vt 0.063288 0.440880
vt 0.063288 0.865235
vt 0.035406 0.004888
vt 0.035406 0.429237
vt 0.004880 0.429237
vt 0.004880 0.004888
vt 0.060364 0.004888
vt 0.060364 0.429237
vt 0.108386 0.440880
vt 0.108386 0.865235
vt 0.154980 0.440880
vt 0.154980 0.865235
vt 0.994888 0.426880
vt 0.994888 0.451099
vt 0.940213 0.451099
vt 0.942777 0.426880
vt 0.994888 0.482364
vt 0.926036 0.482364
vt 0.994888 0.514619
vt 0.894516 0.514619
vt 0.851914 0.533487
vt 0.809744 0.561549
vt 0.775235 0.599830
vt 0.750906 0.652442
vt 0.742322 0.004880
vt 0.794432 0.004880
vt 0.796997 0.029099
vt 0.742322 0.029099
vt 0.811173 0.060364
vt 0.742322 0.060364
vt 0.842693 0.092618
vt 0.742322 0.092618
vt 0.885295 0.111486
vt 0.927464 0.139548
vt 0.961972 0.177828
vt 0.986302 0.230440
vt 0.531526 0.865235
vt 0.479986 0.865235
vt 0.479986 0.440880
vt 0.531526 0.440880
vt 0.732554 0.865235
vt 0.708200 0.865235
vt 0.708200 0.440880
vt 0.732554 0.440880
vt 0.473732 0.004888
vt 0.473731 0.429237
vt 0.422021 0.865235
vt 0.422021 0.440880
vt 0.571232 0.004880
vt 0.623342 0.004880
vt 0.623342 0.429231
vt 0.571232 0.429231
vt 0.673871 0.865235
vt 0.673871 0.440880
vt 0.537251 0.004888
vt 0.561469 0.004888
vt 0.561469 0.429237
vt 0.537250 0.429237
vt 0.505986 0.004888
vt 0.505986 0.429237
vt 0.628773 0.865235
vt 0.628773 0.440880
vt 0.582179 0.865235
vt 0.582179 0.440880
s 1
f 2/1/1 1/2/1 5/3/1 12/4/1
f 12/4/1 5/3/1 10/5/1 13/6/1
f 13/6/1 10/5/1 6/7/1 14/8/1
f 14/8/1 6/7/1 15/9/1 3/10/1
f 15/9/1 6/7/1 7/11/1 16/12/1
f 16/12/1 7/11/1 8/13/1 17/14/1
f 17/14/1 8/13/1 9/15/1 18/16/1
f 18/16/1 9/15/1 11/17/1 4/18/1
f 21/19/2 22/20/2 20/21/2 19/22/2
f 22/20/2 32/23/2 25/24/2 20/21/2
f 32/23/2 33/25/2 26/26/2 25/24/2
f 33/25/2 24/27/2 23/28/2 26/26/2
f 23/28/2 34/29/2 27/30/2 26/26/2
f 34/29/2 35/31/2 28/32/2 27/30/2
f 35/31/2 36/33/2 29/34/2 28/32/2
f 36/33/2 31/35/2 30/36/2 29/34/2
f 8/37/3 28/38/3 29/39/4 9/40/4
f 1/41/5 19/42/5 20/43/6 5/44/6
f 3/45/7 24/46/7 33/47/7 14/48/7
f 11/49/8 30/50/8 31/51/9 4/52/9
f 2/53/10 21/54/10 19/55/10 1/56/10
f 5/44/6 20/43/6 25/57/11 10/58/11
f 12/59/7 22/60/7 21/61/7 2/62/7
f 9/40/4 29/39/4 30/50/8 11/49/8
f 13/63/7 32/64/7 22/60/7 12/59/7
f 10/58/11 25/57/11 26/65/12 6/66/12
f 6/66/12 26/65/12 27/67/13 7/68/13
f 14/48/7 33/47/7 32/64/7 13/63/7
f 7/68/13 27/67/13 28/38/3 8/37/3
f 38/69/1 46/70/1 39/71/1 37/72/1
f 46/70/1 47/73/1 44/74/1 39/71/1
f 47/73/1 48/75/1 40/76/1 44/74/1
f 48/75/1 3/10/1 15/9/1 40/76/1
f 15/9/1 16/12/1 41/77/1 40/76/1
f 16/12/1 17/14/1 42/78/1 41/77/1
f 17/14/1 18/16/1 43/79/1 42/78/1
f 18/16/1 4/18/1 45/80/1 43/79/1
f 51/81/2 49/82/2 50/83/2 52/84/2
f 52/84/2 50/83/2 53/85/2 59/86/2
f 59/86/2 53/85/2 54/87/2 60/88/2
f 60/88/2 54/87/2 23/28/2 24/27/2
f 23/28/2 54/87/2 55/89/2 34/29/2
f 34/29/2 55/89/2 56/90/2 35/31/2
f 35/31/2 56/90/2 57/91/2 36/33/2
f 36/33/2 57/91/2 58/92/2 31/35/2
f 42/93/14 43/94/15 57/95/15 56/96/14
f 37/97/16 39/98/17 50/99/17 49/100/16
f 3/45/7 48/101/7 60/102/7 24/46/7
f 45/103/18 4/52/9 31/51/9 58/104/18
f 38/105/19 37/106/19 49/107/19 51/108/19
f 39/98/17 44/109/20 53/110/20 50/99/17
f 46/111/7 38/112/7 51/113/7 52/114/7
f 43/94/15 45/103/18 58/104/18 57/95/15
f 47/115/7 46/111/7 52/114/7 59/116/7
f 44/109/20 40/117/21 54/118/21 53/110/20
f 40/117/21 41/119/22 55/120/22 54/118/21
f 48/101/7 47/115/7 59/116/7 60/102/7
f 41/119/22 42/93/14 56/96/14 55/120/22
