# 3ds Max Wavefront OBJ Exporter v0.99 - (c)2007 guruware
# File Created: 05.02.2026 22:42:49

#
# object Cylinder002
#

v  28.6795 0.0000 -11.8795
v  25.8109 0.0000 -17.2463
v  32.0463 -0.1899 -21.4127
v  35.6080 -0.1899 -14.7493
v  21.9504 0.0000 -21.9504
v  27.2532 -0.1899 -27.2532
v  17.2463 0.0000 -25.8109
v  21.4127 -0.1899 -32.0463
v  11.8794 0.0000 -28.6795
v  14.7493 -0.1899 -35.6080
v  6.0561 0.0000 -30.4460
v  7.5191 -0.1899 -37.8012
v  -0.0000 0.0000 -31.0425
v  0.0000 -0.1899 -38.5418
v  -6.0561 0.0000 -30.4460
v  -7.5191 -0.1899 -37.8012
v  -11.8795 0.0000 -28.6795
v  -14.7493 -0.1899 -35.6080
v  -17.2463 0.0000 -25.8109
v  -21.4127 -0.1899 -32.0463
v  -21.9504 0.0000 -21.9504
v  -27.2532 -0.1899 -27.2532
v  -25.8109 0.0000 -17.2463
v  -32.0463 -0.1899 -21.4127
v  -28.6795 0.0000 -11.8794
v  -35.6080 -0.1899 -14.7493
v  -30.4460 0.0000 -6.0561
v  -37.8012 -0.1899 -7.5191
v  -31.0425 0.0000 0.0000
v  -38.5418 -0.1899 0.0000
v  -30.4460 0.0000 6.0561
v  -37.8012 -0.1899 7.5191
v  -28.6795 0.0000 11.8795
v  -35.6080 -0.1899 14.7493
v  -25.8109 0.0000 17.2463
v  -32.0463 -0.1899 21.4127
v  -21.9504 0.0000 21.9504
v  -27.2532 -0.1899 27.2532
v  -17.2463 0.0000 25.8109
v  -21.4127 -0.1899 32.0464
v  -11.8794 0.0000 28.6795
v  -14.7493 -0.1899 35.6080
v  -6.0561 0.0000 30.4460
v  -7.5191 -0.1899 37.8012
v  0.0000 0.0000 31.0425
v  0.0000 -0.1899 38.5418
v  6.0561 0.0000 30.4460
v  7.5192 -0.1899 37.8012
v  11.8795 0.0000 28.6795
v  14.7494 -0.1899 35.6080
v  17.2463 0.0000 25.8109
v  21.4127 -0.1899 32.0463
v  21.9504 0.0000 21.9503
v  27.2532 -0.1899 27.2531
v  25.8109 0.0000 17.2463
v  32.0464 -0.1899 21.4126
v  26.5034 0.0000 15.9508
v  34.6504 -0.1899 16.5408
v  37.1763 2.0711 -9.5715
v  35.6080 6.6790 -14.7493
v  37.1492 5.8802 -10.2168
v  32.0463 6.6790 -21.4127
v  27.2532 6.6790 -27.2532
v  21.4127 6.6790 -32.0463
v  14.7493 6.6790 -35.6080
v  7.5191 6.6790 -37.8012
v  0.0000 6.6790 -38.5418
v  -7.5191 6.6790 -37.8012
v  -14.7493 6.6790 -35.6080
v  -21.4127 6.6790 -32.0463
v  -27.2532 6.6790 -27.2532
v  -32.0463 6.6790 -21.4127
v  -35.6080 6.6790 -14.7493
v  -37.8012 6.6790 -7.5191
v  -38.5418 6.6790 0.0000
v  -37.8012 6.6790 7.5191
v  -35.6080 6.6790 14.7493
v  -32.0463 6.6790 21.4127
v  -27.2532 6.6790 27.2532
v  -21.4127 6.6790 32.0464
v  -14.7493 6.6790 35.6080
v  -7.5191 6.6790 37.8012
v  0.0000 6.6790 38.5418
v  7.5192 6.6790 37.8012
v  14.7494 6.6790 35.6080
v  21.4127 6.6790 32.0463
v  27.2532 6.6790 27.2531
v  32.0464 6.6790 21.4126
v  28.6795 6.4891 -11.8795
v  29.7722 4.8930 -9.4776
v  25.8109 6.4891 -17.2463
v  21.9504 6.4891 -21.9504
v  17.2463 6.4891 -25.8109
v  11.8794 6.4891 -28.6795
v  6.0561 6.4891 -30.4460
v  -0.0000 6.4891 -31.0425
v  -6.0561 6.4891 -30.4460
v  -11.8795 6.4891 -28.6795
v  -17.2463 6.4891 -25.8109
v  -21.9504 6.4891 -21.9504
v  -25.8109 6.4891 -17.2463
v  -28.6795 6.4891 -11.8794
v  -30.4460 6.4891 -6.0561
v  -31.0425 6.4891 0.0000
v  -30.4460 6.4891 6.0561
v  -28.6795 6.4891 11.8795
v  -25.8109 6.4891 17.2463
v  -21.9504 6.4891 21.9504
v  -17.2463 6.4891 25.8109
v  -11.8794 6.4891 28.6795
v  -6.0561 6.4891 30.4460
v  0.0000 6.4891 31.0425
v  6.0561 6.4891 30.4460
v  11.8795 6.4891 28.6795
v  17.2463 6.4891 25.8109
v  21.9504 6.4891 21.9503
v  25.8109 6.4891 17.2463
v  35.6080 6.6790 14.7493
v  34.6494 2.0739 16.5427
v  35.5251 5.0902 14.9145
v  26.8237 3.4554 15.6356
v  29.6585 3.4792 -9.5052
v  28.2871 5.4425 12.7218
v  28.6795 6.4891 11.8794
# 124 vertices

vn -0.4118 -0.6978 0.5861
vn -0.5765 -0.7206 0.3852
vn 0.5984 -0.6944 -0.3998
vn 0.6791 -0.7217 -0.1345
vn -0.4903 -0.7206 0.4903
vn 0.5089 -0.6943 -0.5089
vn -0.3852 -0.7206 0.5765
vn 0.3998 -0.6943 -0.5984
vn -0.2653 -0.7206 0.6406
vn 0.2754 -0.6944 -0.6649
vn -0.1353 -0.7206 0.6800
vn 0.1404 -0.6944 -0.7058
vn -0.0000 -0.7206 0.6933
vn -0.0000 -0.6944 -0.7196
vn 0.1353 -0.7206 0.6800
vn -0.1404 -0.6944 -0.7058
vn 0.2653 -0.7206 0.6406
vn -0.2754 -0.6944 -0.6649
vn 0.3852 -0.7206 0.5765
vn -0.3998 -0.6943 -0.5984
vn 0.4903 -0.7206 0.4903
vn -0.5089 -0.6943 -0.5089
vn 0.5765 -0.7206 0.3852
vn -0.5984 -0.6943 -0.3998
vn 0.6406 -0.7206 0.2653
vn -0.6649 -0.6943 -0.2754
vn 0.6801 -0.7206 0.1353
vn -0.7058 -0.6943 -0.1404
vn 0.6934 -0.7206 -0.0000
vn -0.7197 -0.6943 0.0000
vn 0.6800 -0.7206 -0.1353
vn -0.7058 -0.6944 0.1404
vn 0.6405 -0.7206 -0.2653
vn -0.6648 -0.6944 0.2754
vn 0.5765 -0.7206 -0.3852
vn -0.5984 -0.6944 0.3998
vn 0.4903 -0.7206 -0.4903
vn -0.5089 -0.6943 0.5089
vn 0.3852 -0.7206 -0.5765
vn -0.3998 -0.6943 0.5984
vn 0.2653 -0.7206 -0.6406
vn -0.2754 -0.6943 0.6649
vn 0.1353 -0.7206 -0.6801
vn -0.1404 -0.6943 0.7058
vn -0.0000 -0.7206 -0.6934
vn 0.0000 -0.6943 0.7197
vn -0.1353 -0.7206 -0.6801
vn 0.1404 -0.6944 0.7058
vn -0.2653 -0.7206 -0.6406
vn 0.2754 -0.6944 0.6649
vn -0.3852 -0.7206 -0.5765
vn 0.3998 -0.6943 0.5984
vn -0.4903 -0.7206 -0.4903
vn 0.5089 -0.6943 0.5089
vn -0.5765 -0.7206 -0.3852
vn 0.5984 -0.6943 0.3998
vn -0.4185 -0.6046 -0.6777
vn 0.7215 -0.5646 -0.4008
vn 0.6522 -0.4449 0.6138
vn 0.6627 0.7140 -0.2258
vn 0.6922 0.5851 0.4226
vn 0.5984 0.6944 -0.3998
vn 0.5089 0.6943 -0.5089
vn 0.3998 0.6943 -0.5984
vn 0.2754 0.6944 -0.6649
vn 0.1404 0.6944 -0.7058
vn 0.0000 0.6944 -0.7196
vn -0.1404 0.6944 -0.7058
vn -0.2754 0.6944 -0.6649
vn -0.3998 0.6943 -0.5984
vn -0.5089 0.6943 -0.5089
vn -0.5984 0.6943 -0.3998
vn -0.6649 0.6943 -0.2754
vn -0.7058 0.6943 -0.1404
vn -0.7197 0.6943 0.0000
vn -0.7058 0.6944 0.1404
vn -0.6648 0.6944 0.2754
vn -0.5984 0.6944 0.3998
vn -0.5089 0.6943 0.5089
vn -0.3998 0.6943 0.5984
vn -0.2754 0.6943 0.6649
vn -0.1404 0.6943 0.7058
vn 0.0000 0.6943 0.7197
vn 0.1404 0.6944 0.7058
vn 0.2754 0.6944 0.6649
vn 0.3998 0.6943 0.5984
vn 0.5089 0.6943 0.5089
vn 0.5984 0.6943 0.3998
vn -0.5032 0.7252 0.4700
vn -0.3997 0.3514 0.8466
vn -0.5765 0.7206 0.3852
vn -0.4903 0.7206 0.4903
vn -0.3852 0.7206 0.5765
vn -0.2653 0.7206 0.6406
vn -0.1353 0.7206 0.6800
vn -0.0000 0.7206 0.6933
vn 0.1353 0.7206 0.6800
vn 0.2653 0.7206 0.6406
vn 0.3852 0.7206 0.5765
vn 0.4903 0.7206 0.4903
vn 0.5765 0.7206 0.3852
vn 0.6406 0.7206 0.2653
vn 0.6801 0.7206 0.1353
vn 0.6934 0.7206 -0.0000
vn 0.6800 0.7206 -0.1353
vn 0.6405 0.7206 -0.2653
vn 0.5765 0.7206 -0.3852
vn 0.4903 0.7206 -0.4903
vn 0.3852 0.7206 -0.5765
vn 0.2653 0.7206 -0.6406
vn 0.1353 0.7206 -0.6801
vn -0.0000 0.7206 -0.6934
vn -0.1353 0.7206 -0.6801
vn -0.2653 0.7206 -0.6406
vn -0.3852 0.7206 -0.5765
vn -0.4903 0.7206 -0.4903
vn -0.5761 0.7155 -0.3952
vn 0.7758 0.5482 -0.3126
vn 0.9082 -0.2014 -0.3669
vn 0.8800 -0.2616 -0.3964
vn -0.5932 -0.2214 -0.7740
vn -0.5564 -0.1601 0.8153
vn -0.4292 -0.5531 -0.7140
vn -0.1785 0.3351 -0.9251
# 124 vertex normals

vt 0.4090 0.5587 6.6168
vt 0.3758 0.5369 6.6168
vt 0.3985 0.4937 6.6168
vt 0.4396 0.5207 -6.6168
vt 0.3391 0.5221 6.6168
vt 0.3529 0.4752 6.6168
vt 0.3002 0.5146 6.6168
vt 0.3046 0.4660 6.6168
vt 0.2606 0.5150 6.6168
vt 0.2554 0.4664 6.6168
vt 0.2218 0.5230 6.6168
vt 0.2072 0.4764 6.6168
vt 0.1853 0.5385 6.6168
vt 0.1619 0.4955 6.6168
vt 0.1525 0.5607 6.6168
vt 0.1212 0.5232 6.6168
vt 0.1247 0.5890 6.6168
vt 0.0867 0.5583 6.6168
vt 0.1029 0.6221 6.6168
vt 0.0596 0.5994 6.6168
vt 0.0880 0.6588 6.6168
vt 0.0411 0.6450 6.6168
vt 0.0806 0.6978 6.6168
vt 0.0319 0.6934 6.6168
vt 0.0809 0.7374 6.6168
vt 0.0323 0.7426 6.6168
vt 0.0889 0.7762 6.6168
vt 0.0422 0.7908 6.6168
vt 0.1043 0.8128 6.6168
vt 0.0614 0.8361 6.6168
vt 0.1266 0.8456 6.6168
vt 0.0891 0.8768 6.6168
vt 0.1548 0.8734 6.6168
vt 0.1241 0.9114 6.6168
vt 0.1880 0.8952 6.6168
vt 0.1652 0.9384 6.6168
vt 0.2247 0.9101 6.6168
vt 0.2108 0.9569 6.6168
vt 0.2636 0.9175 6.6168
vt 0.2592 0.9662 6.6168
vt 0.3033 0.9172 6.6168
vt 0.3084 0.9658 6.6168
vt 0.3421 0.9092 6.6168
vt 0.3566 0.9559 6.6168
vt 0.3786 0.8938 6.6168
vt 0.4019 0.9367 6.6168
vt 0.4114 0.8716 6.6168
vt 0.4427 0.9091 6.6168
vt 0.4392 0.8433 6.6168
vt 0.4772 0.8741 6.6168
vt 0.4610 0.8102 6.6168
vt 0.5043 0.8330 6.6168
vt 0.4759 0.7735 6.6168
vt 0.5228 0.7874 6.6168
vt 0.4834 0.7346 6.6168
vt 0.5321 0.7390 6.6168
vt 0.4834 0.7250 6.6168
vt 0.5318 0.7031 6.6168
vt 0.9800 0.0404 -648.7882
vt 0.9561 0.0504 -648.7882
vt 0.9560 0.0200 -648.7882
vt 0.9796 0.0200 -648.7882
vt 0.9226 0.0504 -648.7882
vt 0.9226 0.0200 -648.7882
vt 0.8892 0.0504 -648.7882
vt 0.8892 0.0200 -648.7882
vt 0.8557 0.0504 -648.7882
vt 0.8557 0.0200 -648.7882
vt 0.8223 0.0504 -648.7882
vt 0.8223 0.0200 -648.7882
vt 0.7888 0.0504 -648.7882
vt 0.7888 0.0200 -648.7882
vt 0.7554 0.0504 -648.7882
vt 0.7554 0.0200 648.7882
vt 0.7219 0.0504 -648.7882
vt 0.7219 0.0200 -648.7882
vt 0.6885 0.0504 -648.7882
vt 0.6885 0.0200 -648.7882
vt 0.6551 0.0505 -648.7882
vt 0.6551 0.0201 -648.7882
vt 0.6216 0.0505 -648.7882
vt 0.6216 0.0201 -648.7882
vt 0.5882 0.0505 -648.7882
vt 0.5882 0.0201 -648.7882
vt 0.5547 0.0505 -648.7882
vt 0.5547 0.0201 -648.7882
vt 0.5213 0.0505 -648.7882
vt 0.5213 0.0201 -648.7882
vt 0.4879 0.0505 -648.7882
vt 0.4879 0.0201 -648.7882
vt 0.4544 0.0505 -648.7882
vt 0.4544 0.0201 -648.7882
vt 0.4210 0.0505 -648.7882
vt 0.4210 0.0201 -648.7882
vt 0.3876 0.0505 -648.7882
vt 0.3876 0.0201 -648.7882
vt 0.3542 0.0504 -648.7882
vt 0.3542 0.0201 -648.7882
vt 0.3207 0.0504 -648.7882
vt 0.3207 0.0201 -648.7882
vt 0.2873 0.0504 -648.7882
vt 0.2873 0.0200 -648.7882
vt 0.2539 0.0504 -648.7882
vt 0.2539 0.0200 -648.7882
vt 0.2205 0.0504 -648.7882
vt 0.2205 0.0200 648.7882
vt 0.1871 0.0504 -648.7882
vt 0.1871 0.0200 -648.7882
vt 0.1536 0.0504 -648.7882
vt 0.1536 0.0200 -648.7882
vt 0.1202 0.0504 -648.7882
vt 0.1202 0.0200 -648.7882
vt 0.0868 0.0504 -648.7882
vt 0.0868 0.0200 -648.7882
vt 0.0534 0.0504 -648.7882
vt 0.0534 0.0200 -648.7882
vt 0.2770 0.2835 -55.8756
vt 0.2718 0.2917 -55.8756
vt 0.2605 0.2839 55.8756
vt 0.2638 0.2793 -55.8756
vt 0.4815 0.5113 -226.6233
vt 0.4618 0.4649 226.6233
vt 0.5096 0.4500 -226.6233
vt 0.5254 0.4873 213.7387
vt 0.4516 0.4155 -226.6233
vt 0.5013 0.4102 -226.6233
vt 0.4512 0.3652 -226.6233
vt 0.5010 0.3697 -226.6233
vt 0.4606 0.3157 -226.6233
vt 0.5086 0.3298 -226.6233
vt 0.4795 0.2690 -226.6233
vt 0.5238 0.2922 -226.6233
vt 0.5071 0.2269 -226.6233
vt 0.5461 0.2583 -226.6233
vt 0.5424 0.1910 -226.6233
vt 0.5745 0.2294 -226.6233
vt 0.5841 0.1626 -226.6233
vt 0.6080 0.2065 -226.6233
vt 0.6305 0.1430 -226.6233
vt 0.6454 0.1907 -226.6233
vt 0.6798 0.1327 -226.6233
vt 0.6851 0.1824 -226.6233
vt 0.7301 0.1323 -226.6233
vt 0.7257 0.1821 -226.6233
vt 0.7796 0.1417 -226.6233
vt 0.7655 0.1896 -226.6233
vt 0.8263 0.1605 -226.6233
vt 0.8031 0.2048 -226.6233
vt 0.8685 0.1881 -226.6233
vt 0.8371 0.2271 -226.6233
vt 0.9044 0.2234 -226.6233
vt 0.8660 0.2555 -226.6233
vt 0.9328 0.2651 -226.6233
vt 0.8889 0.2890 -226.6233
vt 0.9524 0.3114 -226.6233
vt 0.9047 0.3264 -226.6233
vt 0.9627 0.3607 -226.6233
vt 0.9130 0.3661 -226.6233
vt 0.9632 0.4111 -226.6233
vt 0.9134 0.4067 -226.6233
vt 0.9538 0.4606 -226.6233
vt 0.9058 0.4465 -226.6233
vt 0.9350 0.5073 -226.6233
vt 0.8907 0.4842 -226.6233
vt 0.9074 0.5495 -226.6233
vt 0.8684 0.5181 -226.6233
vt 0.8721 0.5854 -226.6233
vt 0.8400 0.5471 -226.6233
vt 0.8305 0.6138 -226.6233
vt 0.8065 0.5699 -226.6233
vt 0.7842 0.6335 -226.6233
vt 0.7692 0.5858 -226.6233
vt 0.7348 0.6438 -226.6233
vt 0.7295 0.5941 -226.6233
vt 0.6845 0.6443 -226.6233
vt 0.6889 0.5945 -226.6233
vt 0.3544 0.0943 0.0000
vt 0.3275 0.0943 0.0000
vt 0.3275 0.0655 0.0000
vt 0.3544 0.0656 0.0000
vt 0.3814 0.0943 0.0000
vt 0.3814 0.0656 0.0000
vt 0.4083 0.0943 0.0000
vt 0.4083 0.0656 0.0000
vt 0.4352 0.0943 0.0000
vt 0.4352 0.0656 0.0000
vt 0.4621 0.0943 0.0000
vt 0.4621 0.0655 0.0000
vt 0.4891 0.0943 0.0000
vt 0.4891 0.0655 0.0000
vt 0.5160 0.0943 0.0000
vt 0.5160 0.0655 0.0000
vt 0.5429 0.0942 0.0000
vt 0.5429 0.0655 0.0000
vt 0.5698 0.0942 0.0000
vt 0.5698 0.0655 0.0000
vt 0.5968 0.0942 0.0000
vt 0.5968 0.0655 0.0000
vt 0.6237 0.0942 0.0000
vt 0.6237 0.0655 0.0000
vt 0.6506 0.0942 0.0000
vt 0.6506 0.0655 0.0000
vt 0.6776 0.0942 0.0000
vt 0.6776 0.0655 0.0000
vt 0.7045 0.0942 0.0000
vt 0.7045 0.0655 0.0000
vt 0.7314 0.0942 0.0000
vt 0.7314 0.0655 0.0000
vt 0.7584 0.0942 0.0000
vt 0.7584 0.0655 0.0000
vt 0.7853 0.0942 0.0000
vt 0.7853 0.0655 0.0000
vt 0.0852 0.0942 0.0000
vt 0.0583 0.0942 0.0000
vt 0.0583 0.0655 0.0000
vt 0.0852 0.0655 0.0000
vt 0.1121 0.0942 0.0000
vt 0.1121 0.0655 0.0000
vt 0.1391 0.0942 0.0000
vt 0.1391 0.0655 0.0000
vt 0.1660 0.0942 0.0000
vt 0.1660 0.0655 0.0000
vt 0.1929 0.0942 0.0000
vt 0.1929 0.0655 0.0000
vt 0.2198 0.0942 0.0000
vt 0.2198 0.0655 0.0000
vt 0.2467 0.0942 0.0000
vt 0.2468 0.0655 0.0000
vt 0.2737 0.0942 0.0000
vt 0.2737 0.0655 0.0000
vt 0.3006 0.0943 0.0000
vt 0.3006 0.0655 0.0000
vt 0.0200 0.0200 -648.7882
vt 0.0290 0.0404 -648.7882
vt 0.0208 0.0270 -648.7882
vt 0.0518 0.0655 0.0000
vt 0.0499 0.0808 0.0000
vt 0.7970 0.0871 0.0000
vt 0.7967 0.0809 0.0000
vt 0.2882 0.2649 -28.4087
vt 0.2951 0.2654 -28.4087
vt 0.2964 0.2792 -28.4087
vt 0.2899 0.2794 -28.4087
vt 0.2820 0.2662 -28.4087
vt 0.2860 0.2806 -28.4087
vt 0.2637 0.2768 -55.8756
vt 0.2776 0.2751 -20.2079
vt 0.2614 0.2692 -55.8756
vt 0.2743 0.2649 -55.8756
vt 0.6350 0.6350 -226.6233
vt 0.6490 0.5870 -226.6233
vt 0.0314 0.0942 0.0000
vt 0.0355 0.0896 0.0000
vt 0.0290 0.0504 -648.7882
vt 0.2977 0.2653 -28.4087
vt 0.2993 0.2789 28.4087
# 256 texture coords

o Cylinder002
g Cylinder002
s 2
f 1/1/1 2/2/2 3/3/3 4/4/4 
s 3
f 2/2/2 5/5/5 6/6/6 3/3/3 
s 1
f 5/5/5 7/7/7 8/8/8 6/6/6 
f 7/7/7 9/9/9 10/10/10 8/8/8 
f 9/9/9 11/11/11 12/12/12 10/10/10 
f 11/11/11 13/13/13 14/14/14 12/12/12 
f 13/13/13 15/15/15 16/16/16 14/14/14 
f 15/15/15 17/17/17 18/18/18 16/16/16 
f 17/17/17 19/19/19 20/20/20 18/18/18 
f 19/19/19 21/21/21 22/22/22 20/20/20 
f 21/21/21 23/23/23 24/24/24 22/22/22 
f 23/23/23 25/25/25 26/26/26 24/24/24 
f 25/25/25 27/27/27 28/28/28 26/26/26 
f 27/27/27 29/29/29 30/30/30 28/28/28 
f 29/29/29 31/31/31 32/32/32 30/30/30 
f 31/31/31 33/33/33 34/34/34 32/32/32 
f 33/33/33 35/35/35 36/36/36 34/34/34 
f 35/35/35 37/37/37 38/38/38 36/36/36 
f 37/37/37 39/39/39 40/40/40 38/38/38 
f 39/39/39 41/41/41 42/42/42 40/40/40 
f 41/41/41 43/43/43 44/44/44 42/42/42 
f 43/43/43 45/45/45 46/46/46 44/44/44 
f 45/45/45 47/47/47 48/48/48 46/46/46 
f 47/47/47 49/49/49 50/50/50 48/48/48 
f 49/49/49 51/51/51 52/52/52 50/50/50 
f 51/51/51 53/53/53 54/54/54 52/52/52 
s 17
f 53/53/53 55/55/55 56/56/56 54/54/54 
s 16
f 55/55/55 57/57/57 58/58/58 56/56/56 
f 59/59/59 4/60/4 60/61/60 61/62/61 
s 28
f 4/60/4 3/63/3 62/64/62 60/61/60 
s 8
f 3/63/3 6/65/6 63/66/63 62/64/62 
f 6/65/6 8/67/8 64/68/64 63/66/63 
f 8/67/8 10/69/10 65/70/65 64/68/64 
f 10/69/10 12/71/12 66/72/66 65/70/65 
f 12/71/12 14/73/14 67/74/67 66/72/66 
f 14/73/14 16/75/16 68/76/68 67/74/67 
f 16/75/16 18/77/18 69/78/69 68/76/68 
f 18/77/18 20/79/20 70/80/70 69/78/69 
f 20/79/20 22/81/22 71/82/71 70/80/70 
f 22/81/22 24/83/24 72/84/72 71/82/71 
f 24/83/24 26/85/26 73/86/73 72/84/72 
f 26/85/26 28/87/28 74/88/74 73/86/73 
f 28/87/28 30/89/30 75/90/75 74/88/74 
f 30/89/30 32/91/32 76/92/76 75/90/75 
f 32/91/32 34/93/34 77/94/77 76/92/76 
f 34/93/34 36/95/36 78/96/78 77/94/77 
f 36/95/36 38/97/38 79/98/79 78/96/78 
f 38/97/38 40/99/40 80/100/80 79/98/79 
f 40/99/40 42/101/42 81/102/81 80/100/80 
f 42/101/42 44/103/44 82/104/82 81/102/81 
f 44/103/44 46/105/46 83/106/83 82/104/82 
f 46/105/46 48/107/48 84/108/84 83/106/83 
f 48/107/48 50/109/50 85/110/85 84/108/84 
f 50/109/50 52/111/52 86/112/86 85/110/85 
f 52/111/52 54/113/54 87/114/87 86/112/86 
s 12
f 54/113/54 56/115/56 88/116/88 87/114/87 
s off
f 61/117/61 60/118/60 89/119/89 90/120/90 
s 64
f 60/121/60 62/122/62 91/123/91 89/124/89 
s 67
f 62/122/62 63/125/63 92/126/92 91/123/91 
s 1
f 63/125/63 64/127/64 93/128/93 92/126/92 
f 64/127/64 65/129/65 94/130/94 93/128/93 
f 65/129/65 66/131/66 95/132/95 94/130/94 
f 66/131/66 67/133/67 96/134/96 95/132/95 
f 67/133/67 68/135/68 97/136/97 96/134/96 
f 68/135/68 69/137/69 98/138/98 97/136/97 
f 69/137/69 70/139/70 99/140/99 98/138/98 
f 70/139/70 71/141/71 100/142/100 99/140/99 
f 71/141/71 72/143/72 101/144/101 100/142/100 
f 72/143/72 73/145/73 102/146/102 101/144/101 
f 73/145/73 74/147/74 103/148/103 102/146/102 
f 74/147/74 75/149/75 104/150/104 103/148/103 
f 75/149/75 76/151/76 105/152/105 104/150/104 
f 76/151/76 77/153/77 106/154/106 105/152/105 
f 77/153/77 78/155/78 107/156/107 106/154/106 
f 78/155/78 79/157/79 108/158/108 107/156/107 
f 79/157/79 80/159/80 109/160/109 108/158/108 
f 80/159/80 81/161/81 110/162/110 109/160/109 
f 81/161/81 82/163/82 111/164/111 110/162/110 
f 82/163/82 83/165/83 112/166/112 111/164/111 
f 83/165/83 84/167/84 113/168/113 112/166/112 
f 84/167/84 85/169/85 114/170/114 113/168/113 
f 85/169/85 86/171/86 115/172/115 114/170/114 
f 86/171/86 87/173/87 116/174/116 115/172/115 
f 87/173/87 88/175/88 117/176/117 116/174/116 
s 26
f 106/177/106 107/178/107 35/179/35 33/180/33 
s 20
f 105/181/105 106/177/106 33/180/33 31/182/31 
s 4
f 104/183/104 105/181/105 31/182/31 29/184/29 
f 103/185/103 104/183/104 29/184/29 27/186/27 
s 12
f 102/187/102 103/185/103 27/186/27 25/188/25 
s 10
f 101/189/101 102/187/102 25/188/25 23/190/23 
s 2
f 100/191/100 101/189/101 23/190/23 21/192/21 
f 99/193/99 100/191/100 21/192/21 19/194/19 
f 98/195/98 99/193/99 19/194/19 17/196/17 
f 97/197/97 98/195/98 17/196/17 15/198/15 
s 10
f 96/199/96 97/197/97 15/198/15 13/200/13 
s 12
f 95/201/95 96/199/96 13/200/13 11/202/11 
s 4
f 94/203/94 95/201/95 11/202/11 9/204/9 
f 93/205/93 94/203/94 9/204/9 7/206/7 
f 92/207/92 93/205/93 7/206/7 5/208/5 
f 91/209/91 92/207/92 5/208/5 2/210/2 
s 60
f 89/211/89 91/209/91 2/210/2 1/212/1 
s 10
f 116/213/116 117/214/117 55/215/55 53/216/53 
s 2
f 115/217/115 116/213/116 53/216/53 51/218/51 
f 114/219/114 115/217/115 51/218/51 49/220/49 
f 113/221/113 114/219/114 49/220/49 47/222/47 
f 112/223/112 113/221/113 47/222/47 45/224/45 
f 111/225/111 112/223/112 45/224/45 43/226/43 
s 10
f 110/227/110 111/225/111 43/226/43 41/228/41 
s 12
f 109/229/109 110/227/110 41/228/41 39/230/39 
s 4
f 108/231/108 109/229/109 39/230/39 37/232/37 
s 12
f 107/178/107 108/231/108 37/232/37 35/179/35 
s 34
f 118/233/118 88/116/88 119/234/119 120/235/120 
s 44
f 57/236/57 55/215/55 117/214/117 121/237/121 
s 32
f 90/238/90 89/211/89 1/212/1 122/239/122 
s off
f 121/240/121 123/241/123 120/242/120 119/243/119 
f 57/244/57 121/240/121 119/243/119 58/245/58 
f 90/120/90 122/246/122 59/247/59 61/117/61 
f 122/246/122 1/248/1 4/249/4 59/247/59 
s 1
f 88/175/88 118/250/118 124/251/124 117/176/117 
s 4
f 117/214/117 124/252/124 123/253/123 121/237/121 
s 36
f 88/116/88 56/115/56 58/254/58 119/234/119 
s off
f 123/241/123 124/255/124 118/256/118 120/242/120 
# 122 polygons

